<mxfile host="Electron" agent="Mozilla/5.0 (Windows NT 10.0; Win64; x64) AppleWebKit/537.36 (KHTML, like Gecko) draw.io/25.0.1 Chrome/128.0.6613.186 Electron/32.2.6 Safari/537.36" version="25.0.1">
  <diagram name="Page-1" id="-J4CaybhytrjI2hsYeca">
    <mxGraphModel dx="1404" dy="814" grid="1" gridSize="10" guides="1" tooltips="1" connect="1" arrows="1" fold="1" page="1" pageScale="1" pageWidth="1100" pageHeight="850" math="0" shadow="0">
      <root>
        <mxCell id="0" />
        <mxCell id="1" parent="0" />
        <mxCell id="aFoWI3mzYBdlzD4OnAt3-1" value="" style="rounded=0;whiteSpace=wrap;html=1;" parent="1" vertex="1">
          <mxGeometry x="80" y="80" width="920" height="520" as="geometry" />
        </mxCell>
        <mxCell id="aFoWI3mzYBdlzD4OnAt3-2" value="" style="rounded=0;whiteSpace=wrap;html=1;align=left;" parent="1" vertex="1">
          <mxGeometry x="80" y="80" width="920" height="70" as="geometry" />
        </mxCell>
        <mxCell id="aFoWI3mzYBdlzD4OnAt3-7" value="" style="rounded=0;whiteSpace=wrap;html=1;align=right;" parent="1" vertex="1">
          <mxGeometry x="80" y="540" width="920" height="60" as="geometry" />
        </mxCell>
        <mxCell id="aFoWI3mzYBdlzD4OnAt3-8" value="&lt;span style=&quot;&quot;&gt;Copywright 2024&lt;/span&gt;&lt;div style=&quot;&quot;&gt;&amp;nbsp;Richard Maida Jimenez&lt;/div&gt;" style="rounded=0;whiteSpace=wrap;html=1;align=right;" parent="1" vertex="1">
          <mxGeometry x="850" y="540" width="140" height="60" as="geometry" />
        </mxCell>
        <mxCell id="aFoWI3mzYBdlzD4OnAt3-9" value="&lt;h1 style=&quot;margin-top: 0px; line-height: 60%;&quot;&gt;&lt;span style=&quot;background-color: initial;&quot;&gt;Welcome to&lt;/span&gt;&lt;/h1&gt;&lt;h1 style=&quot;margin-top: 0px; line-height: 60%;&quot;&gt;&lt;span style=&quot;background-color: initial;&quot;&gt;Fund Broker&lt;/span&gt;&lt;/h1&gt;&lt;h1 style=&quot;margin-top: 0px; line-height: 60%;&quot;&gt;&lt;span style=&quot;font-size: 12px; font-weight: 400; line-height: 60%;&quot;&gt;A comprehensive portal that enables the secure trading of Mutual Fund Assets on&amp;nbsp;&lt;/span&gt;&lt;span style=&quot;font-size: 12px; font-weight: 400; background-color: initial;&quot;&gt;Fund Supermarkets.&lt;/span&gt;&lt;/h1&gt;&lt;div&gt;&lt;span style=&quot;font-size: 12px; font-weight: 400; background-color: initial;&quot;&gt;From initial Client Trade Entry to final Settlement, Fund Broker offers a highly professional service for&lt;/span&gt;&lt;/div&gt;&lt;div&gt;&lt;span style=&quot;font-size: 12px; font-weight: 400; background-color: initial;&quot;&gt;all your Investment Objectives.&lt;/span&gt;&lt;/div&gt;" style="text;html=1;whiteSpace=wrap;overflow=hidden;rounded=0;fontFamily=Helvetica;fontSize=12;fontColor=default;align=left;" parent="1" vertex="1">
          <mxGeometry x="280" y="220" width="290" height="170" as="geometry" />
        </mxCell>
        <mxCell id="aFoWI3mzYBdlzD4OnAt3-11" value="&lt;font style=&quot;font-size: 24px;&quot;&gt;FUND BROKER&lt;/font&gt;" style="rounded=0;whiteSpace=wrap;html=1;strokeColor=#ffffff;align=center;verticalAlign=middle;fontFamily=Helvetica;fontSize=12;fontColor=default;fillColor=default;" parent="1" vertex="1">
          <mxGeometry x="90" y="90" width="180" height="50" as="geometry" />
        </mxCell>
        <mxCell id="FAacFshyMEu7vZOU42sM-1" value="LOGIN/&lt;div&gt;LOGOUT&lt;/div&gt;" style="rounded=0;whiteSpace=wrap;html=1;" vertex="1" parent="1">
          <mxGeometry x="919" y="96" width="71" height="40" as="geometry" />
        </mxCell>
        <mxCell id="FAacFshyMEu7vZOU42sM-2" value="CLIENTS" style="rounded=0;whiteSpace=wrap;html=1;" vertex="1" parent="1">
          <mxGeometry x="449" y="96" width="73" height="40" as="geometry" />
        </mxCell>
        <mxCell id="FAacFshyMEu7vZOU42sM-3" value="FUNDS" style="rounded=0;whiteSpace=wrap;html=1;" vertex="1" parent="1">
          <mxGeometry x="531" y="96" width="70" height="40" as="geometry" />
        </mxCell>
        <mxCell id="FAacFshyMEu7vZOU42sM-4" value="TRADES" style="rounded=0;whiteSpace=wrap;html=1;" vertex="1" parent="1">
          <mxGeometry x="609" y="96" width="63" height="40" as="geometry" />
        </mxCell>
        <mxCell id="FAacFshyMEu7vZOU42sM-5" value="CONTRACT&lt;div&gt;NOTES&lt;/div&gt;" style="rounded=0;whiteSpace=wrap;html=1;" vertex="1" parent="1">
          <mxGeometry x="679" y="96" width="70" height="40" as="geometry" />
        </mxCell>
        <mxCell id="FAacFshyMEu7vZOU42sM-6" value="USERS" style="rounded=0;whiteSpace=wrap;html=1;" vertex="1" parent="1">
          <mxGeometry x="759" y="96" width="70" height="40" as="geometry" />
        </mxCell>
        <mxCell id="FAacFshyMEu7vZOU42sM-7" value="AUDIT" style="rounded=0;whiteSpace=wrap;html=1;" vertex="1" parent="1">
          <mxGeometry x="839" y="96" width="70" height="40" as="geometry" />
        </mxCell>
      </root>
    </mxGraphModel>
  </diagram>
</mxfile>
